<svg width="45" height="45" viewBox="0 0 45 45" fill="none" xmlns="http://www.w3.org/2000/svg">
<path d="M42.4342 0H24.9342C23.5592 0 22.4342 1.125 22.4342 2.5V25L29.9342 17.5H42.4342C43.8092 17.5 44.9342 16.375 44.9342 15V2.5C44.9342 1.125 43.8092 0 42.4342 0ZM40.5092 30.65L34.1592 29.925C33.4125 29.8373 32.6557 29.92 31.9456 30.1668C31.2355 30.4136 30.5905 30.8181 30.0592 31.35L25.4592 35.95C18.3622 32.3405 12.5936 26.572 8.98418 19.475L13.6092 14.85C14.6842 13.775 15.2092 12.275 15.0342 10.75L14.3092 4.45C14.1674 3.23044 13.5822 2.10559 12.6648 1.28962C11.7474 0.473646 10.562 0.0235408 9.33418 0.025H5.00918C2.18418 0.025 -0.165816 2.375 0.00918369 5.2C1.33418 26.55 18.4092 43.6 39.7342 44.925C42.5592 45.1 44.9092 42.75 44.9092 39.925V35.6C44.9342 33.075 43.0342 30.95 40.5092 30.65Z" fill="white"/>
</svg>
