<svg width="17" height="10" viewBox="0 0 17 10" fill="none" xmlns="http://www.w3.org/2000/svg">
<path fill-rule="evenodd" clip-rule="evenodd" d="M15.9099 3.18176C16.4957 2.59597 16.4957 1.64622 15.9099 1.06043C15.3241 0.474648 14.3744 0.474648 13.7886 1.06043L8.48524 6.36378L3.18195 1.0605C2.59617 0.474716 1.64643 0.474716 1.06065 1.0605C0.474861 1.64629 0.474861 2.59604 1.06065 3.18182L7.42463 9.54572C7.49784 9.61894 7.57679 9.68301 7.65995 9.73792C8.2421 10.1223 9.03315 10.0583 9.54572 9.54593C9.54578 9.54586 9.54588 9.54578 9.54594 9.54572C9.54881 9.54284 9.55167 9.54002 9.55451 9.53712L15.9099 3.18176Z" fill="#797777"/>
</svg>
